<svg xmlns="http://www.w3.org/2000/svg" xmlns:xlink="http://www.w3.org/1999/xlink" version="1.1" x="0px" y="0px" viewBox="0 0 50 50" enable-background="new 0 0 50 50" xml:space="preserve"><path fill-rule="evenodd" clip-rule="evenodd" fill="#000000" d="M47.756,12.959c0,3.155-1.627,5.758-4.834,7.791  c-0.051,0.559-0.102,1.019-0.102,1.477c0,1.374,0.408,2.494,1.223,3.412c0.102,0.151,0.967,0.862,2.598,2.189  c-2.699,0.05-4.787-0.408-6.264-1.427c-1.119-0.763-2.039-1.935-2.699-3.563c-1.119,0.202-2.188,0.305-3.307,0.305  c-1.225,0-2.496-0.209-3.873-0.609c-0.508-1.938-1.678-3.77-3.357-5.4c-1.885-1.678-3.82-2.645-5.903-2.798  c-0.154-0.562-0.206-1.018-0.206-1.376c0-2.798,1.271-5.089,3.92-6.873c2.546-1.781,5.701-2.696,9.419-2.696  c3.766,0,6.924,0.915,9.473,2.696C46.436,7.87,47.756,10.161,47.756,12.959L47.756,12.959z M43.941,32.97  c0-2.854-1.576-4.992-4.74-6.469c-2.389-1.117-5.338-1.68-8.703-1.68c-0.457,3.413-2.389,6.16-5.752,8.197  c-2.186,1.375-4.783,2.039-7.741,2.039c-0.81,0-1.675-0.053-2.59-0.154c-0.916-0.103-1.377-0.15-1.377-0.15  c0.714,1.678,2.292,3.154,4.786,4.322c2.493,1.227,5.397,1.884,8.758,2.088c0,2.549-1.327,4.383-3.971,5.447  c2.546,0,4.53-0.354,5.899-1.117c1.686-0.867,2.906-2.343,3.668-4.534c3.412-0.456,6.211-1.425,8.457-2.899  C42.82,36.583,43.941,34.903,43.941,32.97L43.941,32.97z M29.582,23.956c0-2.749-1.326-5.09-3.917-6.973  c-2.598-1.885-5.753-2.803-9.47-2.803c-3.769,0-6.872,0.918-9.473,2.753c-2.594,1.933-3.864,4.273-3.864,7.022  c0,2.697,1.172,5.039,3.611,6.976c0,0.204,0,0.41,0,0.661c0,1.426-0.354,2.648-1.169,3.565c-0.764,0.913-1.783,1.476-3.056,1.577  c1.372,0.816,2.598,1.223,3.616,1.223c3.002,0,4.733-1.527,5.244-4.585c1.578,0.512,3.31,0.765,5.09,0.765  c3.717,0,6.872-0.965,9.47-3.002C28.256,29.148,29.582,26.81,29.582,23.956L29.582,23.956z M13.445,22.021  c-1.322,0-2.446,1.068-2.446,2.394v7.281h1.325v-6.008h1.272v6.008h5.957v-6.008h1.322v6.008h1.226v-7.281  c0-1.325-1.069-2.394-2.393-2.394H13.445L13.445,22.021z M16.552,15.557c1.576,0,2.897,1.324,2.897,2.903  c0,1.577-1.321,2.849-2.897,2.849c-1.578,0-2.854-1.271-2.854-2.849C13.699,16.881,14.974,15.557,16.552,15.557L16.552,15.557z   M29.635,31.95h4.682c1.02,0,1.834,0.813,1.834,1.832v5.447h-0.814l-0.816-4.172l-0.557,0.101l0.816,4.071h-0.563h-4.48h-0.303  l0.762-4.071l-0.51-0.101l-0.814,4.172h-0.098h-0.973v-5.447C27.801,32.763,28.621,31.95,29.635,31.95L29.635,31.95z M31.977,27.164  c-1.176,0-2.139,0.968-2.139,2.139s0.963,2.138,2.139,2.138c1.17,0,2.141-0.967,2.141-2.138S33.146,27.164,31.977,27.164  L31.977,27.164z M32.945,11.432c-1.271,0-2.293,1.021-2.293,2.24v6.873h1.223h0.102l1.018-5.294l0.666,0.154l-0.971,5.14h0.404  h5.658h0.66l-0.975-5.14l0.666-0.154l1.02,5.294h1.021v-6.873c0-1.22-1.021-2.24-2.295-2.24H32.945L32.945,11.432z M35.898,5.322  c-1.479,0-2.701,1.22-2.701,2.697c0,1.53,1.223,2.749,2.701,2.749c1.473,0,2.697-1.219,2.697-2.749  C38.596,6.542,37.371,5.322,35.898,5.322z"></path></svg>