<?xml version="1.0" encoding="utf-8"?>
<!-- Generator: Adobe Illustrator 16.0.0, SVG Export Plug-In . SVG Version: 6.00 Build 0)  -->
<!DOCTYPE svg PUBLIC "-//W3C//DTD SVG 1.1//EN" "http://www.w3.org/Graphics/SVG/1.1/DTD/svg11.dtd">
<svg version="1.1" id="Layer_1" xmlns="http://www.w3.org/2000/svg" xmlns:xlink="http://www.w3.org/1999/xlink" x="0px" y="0px"
	 width="792px" height="612px" viewBox="0 0 792 612" enable-background="new 0 0 792 612" xml:space="preserve">
<path d="M190.209,611.987v-49.902h48.373v-40.691h48.378v-39.939h62.962V172.002H242.425V87.541h107.504V0h84.462v87.541h111.342
	v84.462H434.391v309.452h70.644v39.927h48.378v40.692h48.373V612H190.209V611.987z M591.815,571.29h-392.39v30.716h392.39V571.29
	L591.815,571.29z M543.431,531.369H248.575v30.716h294.855V531.369z M495.059,490.671H296.942v30.717h198.11v-30.717H495.059z"/>
<line fill="none" x1="702" y1="611" x2="702" y2="561.073"/>
<line fill="none" x1="90" y1="610.987" x2="90" y2="561.085"/>
</svg>
