<?xml version="1.0" encoding="utf-8"?>
<!-- Generator: Adobe Illustrator 16.0.0, SVG Export Plug-In . SVG Version: 6.00 Build 0)  -->
<!DOCTYPE svg PUBLIC "-//W3C//DTD SVG 1.1//EN" "http://www.w3.org/Graphics/SVG/1.1/DTD/svg11.dtd">
<svg version="1.1" id="Layer_1" xmlns="http://www.w3.org/2000/svg" xmlns:xlink="http://www.w3.org/1999/xlink" x="0px" y="0px"
	 width="792px" height="612px" viewBox="0 0 792 612" enable-background="new 0 0 792 612" xml:space="preserve">
<path fill="#C2C2FF" d="M598.438,585.5c12.105-15.478,29.106-29.21,32.644-49.578c2.381-13.641,1.06-27.484,2.504-41.188
	c1.664-15.894,7.613-31.028,9.174-46.958c0.771-7.864,1.034-15.919-1.641-23.458c-2.883-8.146-9.247-13.25-11.132-21.897
	c-1.396-6.359-1.065-13.66-1.285-20.147c-0.147-4.217-2.596-31.493,5.098-31.493c0,0,16.083,22.509,25.729,28.936l6.432-4.015
	c0,0-28.935-42.608-28.935-52.253c0-9.627-384.373-0.043-385.842,0c6.609-0.159,19.443,78.366,20.416,85.312
	c2.417,17.21,4.762,34.823,2.95,52.204c-1.347,12.932-9.707,23.183-13.342,35.33c-3.036,10.135-1.989,20.845-1.989,31.316
	c0,5.545-11.041,17.81-13.477,23.14c-3.28,7.197-9.853,20.863-5.887,28.93c7.852,15.942,45.741,9.259,59.701,7.172
	c1.077-0.165,2.778-31.132,3.072-34.314l22.51,18.085l35.367-39.181c0,0-80.38-64.608-9.645-148.208
	c0,0,64.303,1.989,106.109-15.159c9.822,16.365,24.309,30.845,29.67,49.565c4.057,14.149,1.003,31.273-0.735,45.717
	c-11.187,16.622-22.233,33.354-33.445,49.964c-8.801,13.06-44.119,51.585-8.941,57.595c20.067,3.434,29.009,1.114,38.752-16.01
	c7.368-12.962,12.778-25.478,23.844-35.753c9.657-8.947,15.373-15.508,13.556-30.11c-3.14-25.153,13.482-33.568,31.341-48.238
	c0,0,20.502-32.147,4.424-48.231c0,0-1.805-12.864,4.621-9.639c12.301,23.14,24.162,39.737,23.893,66.708
	c-0.165,15.667,2.338,31.695-0.716,47.21c-1.751,8.916-5.318,17.466-6.493,26.487c-1.487,11.529-7.442,21.279-14.462,30.263
	c-3.893,4.97-12.993,10.129-14.229,16.702c-1.609,8.476,6.047,12.381,11.206,18.408"/>
<path fill="#C2C2FF" d="M678.156,367.09c14.309,10.796,8.379,65.301,2.534,73.061c-5.857,7.754-11.028-32.008-25.337-42.804
	c-14.321-10.808-16.059-23.659-10.215-31.42C650.996,358.167,663.842,356.301,678.156,367.09z"/>
<path fill="#C2C2FF" d="M575.041,154.212c-18.954-11.469-70.319,3.194-70.319,3.194c-110.999,66.604-177.596,12.687-177.596,12.687
	c-47.069-43.581-80.692-59.346-101.458-64.731c-4.761-2.05-9.773-3.617-14.981-4.645c0.998-36.995,1.45-79.683-7.252-79.683
	c-8.954,0-25.11,45.184-33.183,82.871c-0.318,0.116-0.643,0.232-0.961,0.349c-12.215-10.6-35.625-57.969-35.625-72.118
	c0-0.27,0.031-0.539,0.031-0.802c-0.085,0.012-0.171,0-0.257,0.012c-15.557,2.552-23.813,31.236-18.428,64.076
	c2.785,17.008,8.69,31.751,15.888,41.702c-6.279,10.973-9.92,23.648-9.92,37.198c0,3.488,0.324,6.897,0.783,10.263
	c-0.331,0.496-0.686,0.96-1.016,1.462c0.122,1.536,0.232,3.293,0.232,4.866c0.006,29.988-41.457,66.126-2.968,90.606h41.897
	c11.047-8.543,22.173-15.851,32.087-26.004C230.124,256.361,247.841,306,247.841,306H468.43h10.931h161.036
	c5.189-18.36,8.108-30.845,8.108-46.279C648.505,208.802,617.066,165.197,575.041,154.212z M321,280.143l-21.591-11.353
	l-21.592,11.353l4.119-24.052l-17.467-17.026l24.138-3.507l10.802-21.879l10.795,21.879l24.137,3.507l-17.466,17.026L321,280.143z
	 M414.023,280.143l-21.591-11.353l-21.591,11.353l4.125-24.052l-17.466-17.026l24.144-3.507l10.795-21.879l10.795,21.879
	l24.138,3.507l-17.467,17.026L414.023,280.143z M507.054,280.143l-21.585-11.353l-21.598,11.353l4.131-24.052l-17.473-17.026
	l24.144-3.507l10.802-21.879l10.796,21.879l24.137,3.507l-17.467,17.026L507.054,280.143z M603.891,280.143l-21.598-11.353
	l-21.598,11.353l4.131-24.052l-17.467-17.026l24.144-3.507l10.796-21.879l10.796,21.879l24.138,3.507l-17.467,17.026
	L603.891,280.143z"/>
</svg>
