<svg xmlns="http://www.w3.org/2000/svg" xmlns:xlink="http://www.w3.org/1999/xlink" version="1.1" x="0px" y="0px" viewBox="0 0 100 100" enable-background="new 0 0 100 100" xml:space="preserve"><path d="M73.5,49.903c-0.606-1.611-2.187-3.476-3.678-4.337l-6.877-3.97v3.464l5.376,3.104c0.55,0.318,1.197,0.957,1.693,1.624  c0.298,0.401,0.542,0.813,0.677,1.171c0.047,0.125,4.711,12.645,4.711,20.048c0,0.363-0.064,0.76-0.155,1.169  c-0.604,2.723-3.043,6.325-5.27,9.126c-1.179,1.483-2.293,2.74-3.035,3.517c-0.667,0.697-2.151,1.332-3.114,1.332H52.446  c-0.723,0-1.625-0.647-1.856-1.332c0,0-6.337-18.794-6.339-18.799l-5.394-15.985l-0.089-0.258c-0.437-1.611,0.205-3.335,1.616-4.267  c0.869-0.574,1.908-0.774,2.926-0.566c1.02,0.209,1.897,0.803,2.472,1.672l12.377,18.748c0.457,0.692,1.387,0.883,2.078,0.426  c0.691-0.457,0.882-1.387,0.426-2.079l-0.315-0.477l-4.552-6.896h3.916c0.956,0,1.733-0.777,1.733-1.732V12.333  c0-0.956-0.778-1.733-1.733-1.733H31.05c-0.956,0-1.733,0.778-1.733,1.733v42.271c0,0.955,0.778,1.732,1.733,1.732h6.761l0.507,1.5  l2.248,6.652l-5.07,5.07c-0.597,0.597-1.39,0.925-2.234,0.925c-0.843,0-1.635-0.328-2.231-0.923  c-0.597-0.597-0.925-1.39-0.925-2.234s0.328-1.636,0.925-2.232l2.703-2.705l4.552-4.553h-0.001h-4.241l-1.859,1.859l-2.372,2.373  c-1.195,1.193-3.272,1.195-4.466,0c-0.596-0.595-0.923-1.388-0.923-2.232c0-0.845,0.328-1.638,0.923-2.233l2.518-2.517  c-0.024-0.158-0.049-0.317-0.049-0.482v-3.711l-4.59,4.589c-1.163,1.162-1.802,2.708-1.802,4.354s0.64,3.192,1.802,4.354  c1.087,1.087,2.509,1.71,4.033,1.789c-0.097,0.438-0.152,0.888-0.152,1.348c0,1.645,0.64,3.192,1.804,4.355  c1.162,1.162,2.708,1.802,4.352,1.802c0,0,0,0,0,0c0.806,0,1.587-0.156,2.312-0.449c0.194,1.292,0.786,2.485,1.727,3.425  c1.162,1.164,2.708,1.805,4.354,1.805c1.166,0,2.279-0.328,3.245-0.93l2.847,8.442c0.638,1.892,2.702,3.373,4.699,3.373h11.383  c1.78,0,4.051-0.971,5.283-2.259c0.951-0.995,9.291-9.896,9.291-15.885C78.402,63.057,73.7,50.437,73.5,49.903z M43.888,74.339  c-1.193,1.193-3.272,1.194-4.465,0c-0.596-0.596-0.925-1.388-0.924-2.23c0-0.843,0.329-1.636,0.926-2.233l2.213-2.213L43.888,74.339  L43.888,74.339z"></path></svg>