<?xml version="1.0" encoding="utf-8"?>
<!-- Generator: Adobe Illustrator 16.0.0, SVG Export Plug-In . SVG Version: 6.00 Build 0)  -->
<!DOCTYPE svg PUBLIC "-//W3C//DTD SVG 1.1//EN" "http://www.w3.org/Graphics/SVG/1.1/DTD/svg11.dtd">
<svg version="1.1" id="Layer_1" xmlns="http://www.w3.org/2000/svg" xmlns:xlink="http://www.w3.org/1999/xlink" x="0px" y="0px"
	 width="792px" height="612px" viewBox="0 0 792 612" enable-background="new 0 0 792 612" xml:space="preserve">
<path fill="#FFFFFF" stroke="#000000" stroke-miterlimit="10" d="M539.82,305.406c-3.709-9.859-13.385-21.273-22.51-26.542
	l-42.087-24.296v21.2l32.901,18.997c3.365,1.946,7.325,5.857,10.36,9.939c1.824,2.454,3.317,4.975,4.144,7.167
	c0.287,0.765,28.831,77.388,28.831,122.693c0,2.222-0.392,4.651-0.948,7.154c-3.696,16.665-18.623,38.709-32.252,55.852
	c-7.216,9.076-14.033,16.769-18.575,21.523c-4.082,4.266-13.164,8.152-19.058,8.152H410.97c-4.425,0-9.945-3.96-11.359-8.152
	c0,0-38.782-115.019-38.794-115.05l-33.011-97.828l-0.544-1.579c-2.674-9.859,1.254-20.41,9.89-26.114
	c5.318-3.513,11.677-4.737,17.907-3.464c6.243,1.279,11.61,4.915,15.129,10.233l75.747,114.737
	c2.797,4.235,8.489,5.404,12.718,2.607s5.397-8.488,2.607-12.724l-1.928-2.919l-27.858-42.203h23.966
	c5.851,0,10.605-4.756,10.605-10.601V75.478c0-5.851-4.761-10.606-10.605-10.606H280.026c-5.851,0-10.606,4.761-10.606,10.606
	v258.699c0,5.845,4.762,10.6,10.606,10.6h41.377l3.103,9.18l13.757,40.711l-31.028,31.028c-3.653,3.653-8.507,5.66-13.672,5.66
	c-5.159,0-10.006-2.007-13.654-5.648c-3.654-3.653-5.661-8.507-5.661-13.672s2.007-10.013,5.661-13.66l16.542-16.555l27.858-27.864
	h-0.006h-25.955l-11.377,11.377l-14.517,14.523c-7.313,7.301-20.024,7.313-27.332,0c-3.647-3.642-5.648-8.495-5.648-13.66
	c0-5.171,2.007-10.024,5.648-13.666l15.41-15.404c-0.147-0.967-0.3-1.939-0.3-2.949v-22.712l-28.091,28.085
	c-7.118,7.111-11.028,16.573-11.028,26.646s3.917,19.535,11.028,26.646c6.652,6.652,15.355,10.465,24.682,10.948
	c-0.594,2.681-0.93,5.436-0.93,8.25c0,10.067,3.917,19.535,11.041,26.653c7.111,7.111,16.573,11.027,26.634,11.027l0,0
	c4.933,0,9.713-0.954,14.15-2.747c1.187,7.906,4.81,15.208,10.569,20.961c7.112,7.123,16.573,11.046,26.646,11.046
	c7.136,0,13.948-2.007,19.859-5.691l17.424,51.665c3.905,11.579,16.536,20.643,28.758,20.643h69.664
	c10.894,0,24.792-5.942,32.332-13.824c5.82-6.09,56.86-60.564,56.86-97.217C569.82,385.909,541.044,308.675,539.82,305.406z
	 M358.595,454.955c-7.301,7.301-20.025,7.307-27.326,0c-3.647-3.648-5.661-8.495-5.655-13.648c0-5.159,2.014-10.012,5.667-13.666
	l13.543-13.543L358.595,454.955L358.595,454.955z"/>
</svg>
