<svg xmlns:dc="http://purl.org/dc/elements/1.1/" xmlns:cc="http://creativecommons.org/ns#" xmlns:rdf="http://www.w3.org/1999/02/22-rdf-syntax-ns#" xmlns:svg="http://www.w3.org/2000/svg" xmlns="http://www.w3.org/2000/svg" xmlns:sodipodi="http://sodipodi.sourceforge.net/DTD/sodipodi-0.dtd" xmlns:inkscape="http://www.inkscape.org/namespaces/inkscape" viewBox="0 0 80 80" version="1.1" x="0px" y="0px"><path d="m 56.912379,16.133635 14.486634,0 c 1.003197,0 1.810825,0.747915 1.810825,1.677971 l 0,26.015572 c 0,0.929175 -0.807628,1.67753 -1.810825,1.67753 l -14.486634,0 c -1.003208,0 -1.810829,-0.748355 -1.810829,-1.67753 l 0,-26.015572 c 0,-0.930056 0.807621,-1.677971 1.810829,-1.677971 z" style="" fill="#000000" fill-opacity="1" stroke="none"></path><path d="m 70.94631,8.437147 c 0,3.750575 -3.040264,6.790191 -6.790602,6.790191 -3.750372,0 -6.790626,-3.039616 -6.790626,-6.790191 0,-3.750136 3.040254,-6.7906306 6.790626,-6.7906306 3.750338,0 6.790602,3.0404946 6.790602,6.7906306 z" style="" fill="#000000" fill-opacity="1" stroke="none"></path><path style="" d="M 71.71875 55.1875 C 70.778274 55.1875 70 55.993614 70 57 L 70 78.59375 L 67.96875 78.65625 L 68.34375 81.90625 C 68.154638 81.852253 67.959849 81.814757 67.78125 81.75 C 67.026207 82.649739 67.443431 83.861011 66.4375 86.09375 C 66.695046 87.811281 68.9375 88.65625 68.9375 88.65625 C 68.9375 88.65625 66.577744 88.471209 66.4375 90.09375 C 67.311273 92.639476 69.125 93.71875 69.125 93.71875 C 69.125 93.71875 67.20425 94.944073 67.59375 95.90625 C 68.051289 97.036504 69.015708 97.60493 70.21875 97.84375 C 70.499801 98.426613 71.060417 98.84375 71.71875 98.84375 L 77.34375 98.84375 C 78.284261 98.84375 79.0625 98.037638 79.0625 97.03125 L 79.0625 96.375 C 79.10959 96.35608 79.375 96.25 79.375 96.25 L 79.375 93 L 79.0625 92.1875 L 79.0625 89.5625 L 80.53125 87.5625 L 79.5625 89.71875 C 79.825292 91.198761 81.09375 91.90625 81.09375 91.90625 C 81.09375 91.90625 79.9375 92.469151 79.9375 94.8125 C 79.9375 94.8125 80.63052 95.013886 81.3125 95.21875 L 81.3125 97.03125 C 81.3125 98.037638 82.090774 98.84375 83.03125 98.84375 L 88.6875 98.84375 C 89.628017 98.84375 90.375 98.037638 90.375 97.03125 L 90.375 96.53125 C 91.415293 96.364217 92.221648 95.973678 92.53125 95.21875 C 92.77594 93.60801 90.5625 92.625 90.5625 92.625 C 90.5625 92.625 93.121705 92.921376 93.28125 91.1875 C 93.469782 89.138604 90.5625 87.5625 90.5625 87.5625 C 90.5625 87.5625 92.49625 86.506367 92.5 85.03125 C 92.502103 84.207549 91.696873 83.549661 91.34375 83.3125 L 91.34375 81.40625 L 91.71875 77.78125 C 91.71875 77.78125 90.843013 78.104468 90.375 78.28125 L 90.375 57 C 90.375 55.993614 89.628017 55.1875 88.6875 55.1875 L 83.03125 55.1875 C 82.090774 55.1875 81.3125 55.993614 81.3125 57 L 81.3125 78.3125 L 81.0625 78.3125 L 80.59375 81.25 C 80.408608 81.292906 80.217536 81.333634 80.03125 81.375 L 79.40625 78.375 L 79.0625 78.375 L 79.0625 57 C 79.0625 55.993614 78.284261 55.1875 77.34375 55.1875 L 71.71875 55.1875 z M 75.59375 79.09375 C 75.933018 79.078231 76.298744 79.090755 76.59375 79.21875 C 76.975584 79.384416 77.244755 79.709399 77.4375 80 C 77.758486 80.483951 78.001014 81.040315 78.09375 81.625 C 78.237612 82.532103 78.317215 83.633331 78.125 84.5625 C 78.055941 84.896331 77.993969 85.271299 77.625 85.5 C 77.471306 85.59525 77.313999 85.615387 77.1875 85.59375 C 77.061001 85.572113 76.97585 85.532238 76.875 85.46875 C 76.578393 85.282001 76.396937 84.933639 76.3125 84.65625 C 76.177975 84.214278 76.23865 83.795053 76.28125 83.375 C 76.32385 82.954947 76.368225 82.540416 76.28125 82.1875 C 76.20133 81.863204 76.036982 81.513739 75.8125 81.375 C 75.753966 81.338825 75.521255 81.285125 75.34375 81.28125 C 75.166245 81.277375 75.03125 81.28125 75.03125 81.28125 L 74.84375 81.3125 L 74.84375 81.09375 L 74.8125 79.34375 L 74.8125 79.1875 L 74.96875 79.125 C 74.96875 79.125 75.254482 79.109262 75.59375 79.09375 z M 84.71875 79.09375 L 84.71875 79.375 L 84.75 81.28125 L 84.75 81.5 L 84.5625 81.5 C 84.5625 81.5 84.458286 81.504987 84.3125 81.53125 C 84.166714 81.557513 83.969738 81.59815 83.9375 81.625 C 83.857534 81.691608 83.795966 81.830277 83.71875 81.96875 L 83.8125 82 C 84.029621 82.110946 84.11095 82.407874 84 82.625 L 82.75 85.0625 C 82.639054 85.279621 82.373374 85.36095 82.15625 85.25 L 80.40625 84.34375 C 80.189107 84.232804 80.0453 83.967124 80.15625 83.75 L 81.40625 81.3125 C 81.461723 81.203941 81.570833 81.100259 81.6875 81.0625 C 81.745834 81.043621 81.817216 81.025652 81.875 81.03125 C 81.898911 81.033566 81.916568 81.053884 81.9375 81.0625 C 82.094967 80.770588 82.276581 80.509485 82.46875 80.3125 C 82.761765 80.012141 83.26812 79.738007 83.6875 79.53125 C 84.10688 79.324488 84.4375 79.21875 84.4375 79.21875 L 84.71875 79.09375 z M 74.25 79.125 L 74.5 79.125 L 74.5 79.34375 L 74.5 81.09375 L 74.5 81.28125 L 74.25 81.28125 L 69.03125 81.3125 L 68.8125 81.3125 L 68.78125 81.1875 L 68.5 79.53125 L 68.46875 79.3125 L 68.71875 79.3125 L 74.25 79.125 z M 90.5625 79.125 L 90.78125 79.125 L 90.78125 79.34375 L 90.78125 81.09375 L 90.78125 81.28125 L 90.59375 81.28125 L 85.3125 81.3125 L 85.0625 81.3125 L 85.0625 81.125 L 85.125 79.40625 L 85.125 79.1875 L 85.3125 79.1875 L 90.5625 79.125 z M 75.625 79.5 C 75.39162 79.510675 75.279738 79.519625 75.1875 79.53125 L 75.25 80.875 C 75.311638 80.872375 75.293988 80.87325 75.375 80.875 C 75.57957 80.879531 75.798019 80.875175 76 81 C 76.388707 81.240234 76.594938 81.749389 76.6875 82.125 C 76.797263 82.570406 76.729763 82.989452 76.6875 83.40625 C 76.645237 83.823048 76.613862 84.186644 76.71875 84.53125 C 76.790559 84.767144 76.905073 85.025875 77.0625 85.125 C 77.071625 85.13075 77.165113 85.141725 77.25 85.15625 C 77.292443 85.163512 77.348956 85.153603 77.375 85.15625 C 77.572993 85.023694 77.682841 84.824627 77.75 84.5 C 77.92443 83.656809 77.827136 82.567942 77.6875 81.6875 C 77.605811 81.17246 77.419466 80.693966 77.125 80.25 C 76.939742 79.970686 76.683021 79.669025 76.4375 79.5625 C 76.288655 79.497925 75.942734 79.485463 75.625 79.5 z M 74.0625 79.53125 L 68.9375 79.6875 L 69.1875 80.9375 L 74.0625 80.90625 L 74.0625 79.53125 z M 90.34375 79.53125 L 85.5 79.625 L 85.5 80.9375 L 90.34375 80.90625 L 90.34375 79.53125 z M 84.34375 79.6875 C 84.21105 79.743146 84.075968 79.807609 83.8125 79.9375 C 83.408909 80.136472 82.995954 80.373664 82.78125 80.59375 C 82.639169 80.739392 82.467393 80.957336 82.3125 81.21875 L 83.34375 81.75 C 83.44647 81.581751 83.581071 81.42718 83.71875 81.3125 C 83.8802 81.178025 84.047611 81.155825 84.21875 81.125 C 84.293887 81.111463 84.320087 81.131125 84.375 81.125 L 84.34375 79.6875 z M 76.9375 81.03125 C 77.005662 81.033838 77.072525 81.07415 77.125 81.125 C 77.177475 81.175848 77.2215 81.237987 77.21875 81.3125 C 77.2162 81.379863 77.198037 81.4418 77.15625 81.5 C 77.114467 81.5582 77.0331 81.628625 76.9375 81.625 C 76.8472 81.621612 76.769825 81.581738 76.71875 81.53125 C 76.667675 81.480758 76.625 81.407 76.625 81.3125 C 76.628375 81.223246 76.6925 81.137363 76.75 81.09375 C 76.807496 81.050138 76.8622 81.028375 76.9375 81.03125 z M 77.1875 81.96875 C 77.254863 81.9713 77.3168 81.989463 77.375 82.03125 C 77.4332 82.073032 77.503625 82.1544 77.5 82.25 C 77.496625 82.339254 77.4325 82.425137 77.375 82.46875 C 77.317504 82.512362 77.2628 82.534125 77.1875 82.53125 C 77.048594 82.52604 76.90625 82.395624 76.90625 82.25 C 76.908838 82.181838 76.94915 82.114975 77 82.0625 C 77.050848 82.010025 77.112988 81.966 77.1875 81.96875 z M 77.28125 83.03125 C 77.349412 83.033838 77.416275 83.07415 77.46875 83.125 C 77.521225 83.175847 77.56525 83.237987 77.5625 83.3125 C 77.55995 83.379863 77.541787 83.4418 77.5 83.5 C 77.458218 83.5582 77.37685 83.628625 77.28125 83.625 C 77.19095 83.621612 77.113575 83.581738 77.0625 83.53125 C 77.011425 83.480758 76.96875 83.407 76.96875 83.3125 C 76.972125 83.223246 77.03625 83.137362 77.09375 83.09375 C 77.151246 83.050138 77.20595 83.028375 77.28125 83.03125 z M 77.21875 84.09375 C 77.308004 84.097125 77.393888 84.16125 77.4375 84.21875 C 77.481112 84.276246 77.502875 84.33095 77.5 84.40625 C 77.497412 84.474412 77.4571 84.541275 77.40625 84.59375 C 77.355403 84.646225 77.293263 84.69025 77.21875 84.6875 C 77.079844 84.68229 76.9375 84.551874 76.9375 84.40625 L 76.9375 84.375 C 76.940088 84.306838 76.9804 84.239975 77.03125 84.1875 C 77.082097 84.135025 77.144238 84.091 77.21875 84.09375 z " transform="scale(0.8,0.8)" fill="#000000" fill-opacity="1" stroke="none"></path><path d="m 75.354033,16.585903 1.810831,0 c 0.752402,0 1.358119,0.606252 1.358119,1.358127 l 0,24.446271 c 0,0.752314 -0.605717,1.358566 -1.358119,1.358566 l -1.810831,0 c -0.752397,0 -1.358125,-0.606252 -1.358125,-1.358566 l 0,-24.446271 c 0,-0.751875 0.605728,-1.358127 1.358125,-1.358127 z" style="" fill="#000000" fill-opacity="1" stroke="none"></path><path d="m 51.146513,16.585903 1.810829,0 c 0.752408,0 1.358127,0.606252 1.358127,1.358127 l 0,24.446271 c 0,0.752314 -0.605719,1.358566 -1.358127,1.358566 l -1.810829,0 c -0.752414,0 -1.358132,-0.606252 -1.358132,-1.358566 l 0,-24.446271 c 0,-0.751875 0.605718,-1.358127 1.358132,-1.358127 z" style="" fill="#000000" fill-opacity="1" stroke="none"></path><path d="m 8.1290081,15.623733 12.2231089,0 c 1.003205,0 1.810831,0.807309 1.810831,1.810835 l 0,28.06838 c 0,1.002647 -0.807626,1.809954 -1.810831,1.809954 l -12.2231089,0 c -1.0031956,0 -1.8108259,-0.807307 -1.8108259,-1.809954 l 0,-28.06838 c 0,-1.003526 0.8076303,-1.810835 1.8108259,-1.810835 z" style="" fill="#000000" fill-opacity="1" stroke="none"></path><path d="m 16.735582,46.034849 3.168943,0 c 0.752407,0 1.358131,0.606252 1.358131,1.35856 l 0,29.879225 c 0,0.750993 -0.605724,1.357243 -1.358131,1.357243 l -3.168943,0 c -0.752403,0 -1.358126,-0.60625 -1.358126,-1.357243 l 0,-29.879225 c 0,-0.752308 0.605723,-1.35856 1.358126,-1.35856 z" style="" fill="#000000" fill-opacity="1" stroke="none"></path><path d="m 8.5966447,45.915621 3.1689603,0 c 0.752403,0 1.358127,0.604932 1.358127,1.357242 l 0,29.879225 c 0,0.752308 -0.605724,1.357681 -1.358127,1.357681 l -3.1689603,0 c -0.752394,0 -1.3581175,-0.605373 -1.3581175,-1.357681 l 0,-29.879225 c 0,-0.75231 0.6057235,-1.357242 1.3581175,-1.357242 z" style="" fill="#000000" fill-opacity="1" stroke="none"></path><path d="m 2.6965261,16.076002 1.8108259,0 c 0.7524027,0 1.3581262,0.606251 1.3581262,1.358566 l 0,22.183167 c 0,0.751875 -0.6057235,1.357686 -1.3581262,1.357686 l -1.8108259,0 c -0.7524028,0 -1.3581219,-0.605811 -1.3581219,-1.357686 l 0,-22.183167 c 0,-0.752315 0.6057191,-1.358566 1.3581219,-1.358566 z" style="" fill="#000000" fill-opacity="1" stroke="none"></path><path d="m 22.162961,38.712318 3.168948,18.107905 -22.1826833,0 3.1689565,-18.107905 z" style="" fill="#000000" stroke="none"></path><path style="" d="M 17.8125 0.84375 C 13.124567 0.84375 9.34375 4.6242804 9.34375 9.3125 L 9.34375 9.34375 L 9.3125 9.34375 C 9.234425 12.020297 9.0532797 13.846047 8.8125 15.59375 C 8.5851125 16.335066 7.3192559 15.538492 6.1875 14.96875 C 6.7127017 17.583154 7.67019 18.36895 9 18.375 C 10.107755 18.331012 11.388488 17.326884 11.28125 14.96875 C 11.281569 14.895063 11.28125 14.796292 11.28125 14.71875 C 12.838107 16.605038 15.17556 17.8125 17.8125 17.8125 C 20.431511 17.8125 22.755473 16.61539 24.3125 14.75 C 24.3125 14.815438 24.312181 14.906057 24.3125 14.96875 C 24.205175 17.326884 25.517234 18.334854 26.625 18.375 C 27.954805 18.375 28.881052 17.583154 29.40625 14.96875 C 28.274494 15.535185 27.00872 16.335066 26.78125 15.59375 C 26.547373 13.895542 26.363099 12.11531 26.28125 9.5625 C 26.28125 9.48881 26.3125 9.3889419 26.3125 9.3125 C 26.3125 4.6242805 22.500421 0.84375 17.8125 0.84375 z M 18.03125 11.03125 C 19.097853 11.03125 19.96875 12.185086 19.96875 13.625 C 19.96875 15.064914 19.097853 16.25 18.03125 16.25 C 16.964647 16.25 16.09375 15.064914 16.09375 13.625 C 16.09375 12.185086 16.964647 11.03125 18.03125 11.03125 z " transform="scale(0.8,0.8)" fill="#000000" fill-opacity="1" stroke="none"></path><path style="" d="m 20.923573,16.863952 -0.861035,5.114421 18.962459,11.983803 c 0.628653,0.390676 1.59987,-1.300053 2.349668,-1.33481 0.349945,-0.0132 2.457487,1.356807 3.919719,1.60098 l 0.372967,-0.772553 c 0.167041,-0.34844 -2.925704,-2.131998 -2.80236,-2.46724 0.429889,-1.168508 0.710287,-1.837672 0.297983,-1.725485 -0.638288,0.801149 -1.095299,0.996487 -1.251548,0.897498 C 37.209332,27.177265 24.614663,19.206687 20.923062,16.864393 z" fill="#000000" fill-opacity="1" stroke="none"></path></svg>