<svg xmlns="http://www.w3.org/2000/svg" xmlns:xlink="http://www.w3.org/1999/xlink" version="1.1" x="0px" y="0px" viewBox="0 0 100 100" enable-background="new 0 0 100 100" xml:space="preserve"><path d="M6,46v13.075v3.888V85h9.791c-0.043-0.533-0.069-1.073-0.069-1.62c0-9.485,6.82-17.176,15.231-17.176  s15.23,7.69,15.23,17.176c0,0.547-0.024,1.087-0.069,1.62h5.903h4.536h0.006c0.112-10.421,5.021-18.81,11.144-18.81  c0.122,0,0.297,0.008,0.297,0.017v-3.244v-3.888V46H6z"></path><path d="M86,60v5.557c0,5.012-2.22,9.073-5,9.073c-2.782,0-5-4.062-5-9.073V46H65.232C65.071,47,65,47.568,65,48.324v24.094  C65,79.367,72.162,85,81,85c8.836,0,16-5.633,16-12.582V60H86z"></path><rect x="6" y="46" width="70" height="18"></rect><path d="M41.02,15.764C21.863,15.764,6.308,28,6.01,44h70.019C75.73,28,60.176,15.764,41.02,15.764z M26.962,37.934l-3.877-2.039  l-3.878,2.039l0.741-4.317l-3.137-3.058l4.335-0.63L23.085,26l1.939,3.928l4.335,0.63l-3.137,3.058L26.962,37.934z M44.962,37.934  l-3.877-2.039l-3.878,2.039l0.741-4.317l-3.137-3.058l4.335-0.63L41.085,26l1.939,3.928l4.335,0.63l-3.137,3.058L44.962,37.934z   M63.963,37.934l-3.878-2.039l-3.878,2.039l0.74-4.317l-3.137-3.058l4.336-0.63L60.085,26l1.938,3.928l4.336,0.63l-3.138,3.058  L63.963,37.934z"></path></svg>