<?xml version="1.0" encoding="utf-8"?>
<!-- Generator: Adobe Illustrator 16.0.0, SVG Export Plug-In . SVG Version: 6.00 Build 0)  -->
<!DOCTYPE svg PUBLIC "-//W3C//DTD SVG 1.1//EN" "http://www.w3.org/Graphics/SVG/1.1/DTD/svg11.dtd">
<svg version="1.1" id="Layer_1" xmlns="http://www.w3.org/2000/svg" xmlns:xlink="http://www.w3.org/1999/xlink" x="0px" y="0px"
	 width="792px" height="612px" viewBox="0 0 792 612" enable-background="new 0 0 792 612" xml:space="preserve">
<path fill="#FF0000" d="M126.72,281.52v80.019v23.795V520.2h59.921c-0.263-3.262-0.422-6.567-0.422-9.915
	c0-58.048,41.738-105.117,93.214-105.117c51.475,0,93.208,47.063,93.208,105.117c0,3.348-0.147,6.652-0.422,9.915h36.126h27.761
	h0.036c0.686-63.776,30.729-115.117,68.202-115.117c0.746,0,1.817,0.049,1.817,0.104v-19.853v-23.795V281.52H126.72z"/>
<path fill="#FF0000" d="M616.32,367.2v34.009c0,30.673-13.587,55.526-30.601,55.526c-17.025,0-30.6-24.859-30.6-55.526V281.52h-65.9
	c-0.985,6.12-1.42,9.596-1.42,14.223v147.456c0,42.527,43.832,77.002,97.92,77.002c54.076,0,97.92-34.475,97.92-77.002V367.2H616.32
	z"/>
<rect x="126.72" y="281.52" fill="#FF0000" width="428.4" height="110.16"/>
<path fill="#FF0000" d="M341.042,96.476c-117.241,0-212.438,74.884-214.261,172.804h428.517
	C553.468,171.36,458.277,96.476,341.042,96.476z M255.007,232.156l-23.727-12.479l-23.733,12.479l4.535-26.42l-19.198-18.715
	l26.53-3.855l11.867-24.045l11.867,24.039l26.53,3.856l-19.199,18.715L255.007,232.156z M365.167,232.156l-23.727-12.479
	l-23.733,12.479l4.535-26.42l-19.198-18.715l26.53-3.855l11.867-24.045l11.866,24.039l26.53,3.856l-19.198,18.715L365.167,232.156z
	 M481.453,232.156l-23.732-12.479l-23.733,12.479l4.528-26.42l-19.198-18.715l26.536-3.855l11.866-24.045l11.861,24.039
	l26.536,3.856l-19.205,18.715L481.453,232.156z"/>
</svg>
