<?xml version="1.0" encoding="utf-8"?>
<!-- Generator: Adobe Illustrator 16.0.0, SVG Export Plug-In . SVG Version: 6.00 Build 0)  -->
<!DOCTYPE svg PUBLIC "-//W3C//DTD SVG 1.1//EN" "http://www.w3.org/Graphics/SVG/1.1/DTD/svg11.dtd">
<svg version="1.1" id="Layer_1" xmlns="http://www.w3.org/2000/svg" xmlns:xlink="http://www.w3.org/1999/xlink" x="0px" y="0px"
	 width="792px" height="612px" viewBox="0 0 792 612" enable-background="new 0 0 792 612" xml:space="preserve">
<path fill="#FFFFFF" stroke="#000000" stroke-miterlimit="10" d="M626.54,188.496l-91.922-57.834l5.386-22.46
	c4.1-17.258-6.61-34.639-23.807-38.74L354.751,30.906h-0.184c-2.387-0.551-4.834-0.857-7.283-0.857
	c-5.936,0-11.75,1.652-16.83,4.712v0.061h-0.061c-7.283,4.529-12.423,11.567-14.443,19.951l-4.773,20.012L196.671,88.25
	c-8.506,0.979-16.157,5.263-21.481,11.995c-4.59,5.753-6.977,12.729-6.977,19.951c0,1.285,0.123,2.509,0.245,3.794l19.927,169.781
	c-6.022,6.028-9.768,9.767-9.768,9.767c-7.889,6.873-13.084,17.338-14.113,28.519c-0.037,0.447-0.184,2.014-0.184,2.014
	s-1.285,140.209,0,186.923c0.104,3.808,0.453,8.293,3.954,14.7c7.631,13.967,23.923,14.229,29.437,14.229c0,0,3.005,0,5.992,0
	c0,7.552,0,25.998,0,25.998c0,3.078,2.497,5.569,5.569,5.569H369.99c3.072,0,5.575-2.491,5.575-5.569c0,0,0-17.896,0-25.502
	c12.742,0.116,30.783-1.5,38.788-17.454c2.062-4.113,3.195-8.434,3.458-12.853c0.165-0.875,0.38-1.965,0.38-1.965
	c0-0.012,3.678-69.756,3.678-69.756c0.288-5.459,1.793-10.508,4.676-15.63l33.164,20.869c5.08,3.243,11.017,4.957,17.075,4.957
	c11.139,0,21.358-5.63,27.295-15.055l132.56-210.651C646.063,217.811,641.534,197.921,626.54,188.496z M617.115,220.565
	l-132.559,210.65c-1.775,2.754-4.713,4.284-7.772,4.284c-1.652,0-3.305-0.489-4.773-1.407l-80.276-50.515l19.229-16.01
	c9.786-8.636,16.53-20.937,18.495-34.07c0.104-0.661,0.3-3.078,0.3-3.623c0.208-20.264-11.432-37.528-29.211-44.504
	c6.965,8.427,10.998,19.388,10.876,31.377c0,0.538-0.196,2.956-0.294,3.623c-1.971,13.133-8.709,25.435-18.501,34.069
	c-0.006,0.013-42.656,35.466-63.544,52.804c-4.486,27.962-18.543,57.124-40.563,74.634c-21.916,17.43-53.862,16.756-79.841,10.422
	c-6.763-1.652-6.022-11.206-3.495-15.691c3.433-6.133,9.773-9.29,16.561-7.632c2.803,0.734,17.069,2.441,22.626,2.54
	c12.025,0.214,26.285-0.875,35.232-9.964c14.823-15.055,24.615-38.286,26.542-56.726c0.888-8.544,8.874-13.52,14.963-18.581
	c7.895-6.542,15.784-13.103,23.679-19.651c0.765-0.636,1.53-1.267,2.295-1.903c10.257-8.513,33.011-27.411,34.131-28.335
	c3.439-2.858,6.414-8.587,7.014-13.874c0.569-13.96-9.321-29.107-24.125-30.502c-6.652-0.63-12.674,2.828-14.309,3.647
	c0,0-102.926,51.793-137.045,68.966c-5.514,2.778-12.736,0.508-14.058-5.912c-1.438-6.934,3.519-13.451,9.406-16.42
	c2.913-1.469,5.826-2.932,8.746-4.4l-25.435-216.623c-0.061-0.367-0.122-0.734-0.122-1.102c0.061-2.02,0.734-3.978,2.02-5.569
	c1.469-1.897,3.672-3.121,6.059-3.427l106.121-12.423l-47.308,198.166c-1.536,6.536-0.833,13.195,1.665,19.333
	c6.903-3.47,13.8-6.945,20.704-10.416c-0.098-0.477-0.153-0.96-0.153-1.444c0-0.734,0.062-1.407,0.245-2.142l49.266-206.367
	l0.067-0.306l8.439-35.44c0.551-2.387,2.02-4.346,4.101-5.631c1.469-0.856,3.06-1.346,4.773-1.346c0.673,0,1.408,0.061,2.081,0.245
	l161.446,38.495c4.161,1.04,6.977,4.712,6.977,8.812c0,0.734-0.062,1.469-0.245,2.203l-3.55,14.811l-27.907-17.564
	c-5.141-3.244-11.016-4.957-17.136-4.957c-2.387,0-4.773,0.245-7.099,0.795h-0.062c-8.385,1.897-15.483,6.977-20.073,14.199
	L336.22,277.774c2.246-1.132,4.492-2.264,6.738-3.39l1.658-0.839c0.166-0.085,0.337-0.165,0.502-0.257
	c0.012,0,0.019-0.006,0.031-0.006c6.585-3.103,13.905-4.73,21.683-4.418c0.734,0.031,1.432,0.128,2.154,0.196l92.253-146.599
	c1.285-2.02,3.305-3.488,5.691-4.039c0.673-0.122,1.347-0.184,2.02-0.184c1.714,0,3.366,0.49,4.835,1.408l140.454,88.373
	c2.754,1.714,4.284,4.713,4.284,7.711C618.523,217.382,618.033,219.096,617.115,220.565z"/>
</svg>
