<svg xmlns="http://www.w3.org/2000/svg" xmlns:xlink="http://www.w3.org/1999/xlink" version="1.1" x="0px" y="0px" viewBox="0 0 100 100" enable-background="new 0 0 100 100" xml:space="preserve"><path d="M61.995,44.088c-2.206-9.251-6.236-20.416-12.854-20.416c0,0.005-0.002,0.015-0.002,0.021c0-0.006,0-0.016,0-0.021  c-6.618,0-10.647,11.165-12.853,20.416h12.853c0-0.002,0-0.003,0-0.005c0,0.001,0.001,0.003,0.002,0.005H61.995z"></path><path d="M62.259,45.23h-13.12H46.8H36.021c-0.392,1.729-0.72,3.369-0.986,4.828l1.833,1.833l4.083-4.083l0.009,0.009l0.01-0.009  l4.083,4.083l4.083-4.083l0.002,0.002c0-0.002,0-0.004,0-0.006c0,0.002,0.002,0.004,0.002,0.006l0.002-0.002l4.084,4.083  l4.082-4.083l0.008,0.009l0.012-0.009l4.083,4.083l1.834-1.833C62.979,48.599,62.65,46.958,62.259,45.23z"></path><path d="M63.506,51.544l-2.09,2.091l-0.005-0.004l-0.004,0.004l-4.091-4.088l-4.088,4.088l-0.002-0.004l-0.006,0.004l-4.083-4.082  c0,0.029-0.002,0.057-0.002,0.086c0-0.029,0-0.057,0-0.086l-4.081,4.082l-0.004-0.004l-0.003,0.004l-4.09-4.088l-4.089,4.088  l-0.004-0.004l-0.003,0.004l-2.091-2.091c-0.478,2.812-0.695,4.669-0.695,4.669H47.56h1.578h15.063  C64.202,56.213,63.986,54.355,63.506,51.544z"></path><path d="M49.887,57.277L49.887,57.277H0c0,0,1.61,10.354,6.589,10.354c2.841,0,43.285,0,43.297,0l0,0c0.012,0,40.454,0,43.295,0  c4.979,0,6.59-10.354,6.59-10.354H49.887z"></path></svg>