<svg xmlns:dc="http://purl.org/dc/elements/1.1/" xmlns:cc="http://creativecommons.org/ns#" xmlns:rdf="http://www.w3.org/1999/02/22-rdf-syntax-ns#" xmlns:svg="http://www.w3.org/2000/svg" xmlns:sodipodi="http://sodipodi.sourceforge.net/DTD/sodipodi-0.dtd" xmlns:inkscape="http://www.inkscape.org/namespaces/inkscape" xmlns="http://www.w3.org/2000/svg" xmlns:xlink="http://www.w3.org/1999/xlink" version="1.1" x="0px" y="0px" viewBox="0 0 841.9 1049.125" enable-background="new 0 0 841.9 839.3" xml:space="preserve"><path d="M695,412.7c10.9-24.9,0.1-31.7-7.1-70.6c-3.3-18-9.4-37.3-19.4-55.7L232.2,400.8c-1.3,16.8-0.9,33,1.5,47.8  c8.3,52.7,39.5,117.3,59.8,144.8c20.3,27.5,30.2,47.7,31.1,65.8c2.7,52.2-8.6,102.9-40.9,180.1c0,0,269,0,292.8,0.1  c-5.8-11.6-9.3-18.4-11.4-37.1c-2.8-23.9,1.2-51.6,7.2-70c4.1-12.4,19-21,33.4-21.2c23.6-0.4,44.8,7,81.5,0.2  c19-3.5,18-31.7,13.2-51.5c-4.7-19.7,10.9-23.9,10.7-32c-0.1-4.5,1.8-7.9-9.5-14.7c20.7-11.2,13.5-21.6,9.8-29.9  c-13.5-29.5,1.6-29.4,7.6-31.7c6-2.4,22.2-5.4,23.9-18.5c1.8-13.2-18.1-37.9-33.7-58.8C693.6,453.2,686.2,433.1,695,412.7z"/><path d="M170.9,32.8c-35.1,32.6-54.5,80-67.6,141.7c-12.4,58.3,1.7,121.6,35.2,164.2c20.8,26.5,57.3,49.5,93.8,62.1L231.9,0  C211,5.2,189.8,15.3,170.9,32.8z"/><g><path d="M495.2,153.4l-8.8-15.1l-20,7.3c-3.4-4.1-7.1-7.8-11.1-11.1l7.1-20l-15.2-8.7l-13.6,16.3c-2.7-1-5.4-1.8-8.1-2.5   c-0.1,0-0.3-0.1-0.4-0.1l-0.1,0c-2.2-0.5-4.3-1-6.5-1.4l-3.8-20.9l-17.5,0.1l-3.6,20.9c-5.1,0.9-10.2,2.2-15.2,4.2l-13.7-16.1   l-15.1,8.8l7.3,19.9c-4.1,3.4-7.8,7.2-11.1,11.2l-20-7.1l-8.7,15.2l16.3,13.6c-0.8,2.2-1.5,4.5-2.1,6.8l-0.1,0.1c0,0.1,0,0.2,0,0.3   c-0.7,2.6-1.3,5.3-1.7,8.1l-20.9,3.8l0.1,17.5l20.9,3.6c0.9,5.1,2.3,10.2,4.2,15.1l-16.2,13.8l8.8,15.1l20-7.3   c3.4,4.1,7.1,7.7,11.1,11l-7.1,20.1l15.2,8.7l13.7-16.4c4.9,1.8,9.9,3.1,15.1,4l3.9,21l17.5-0.1l3.6-21.1c5.1-0.8,10.1-2.2,15-4.1   l13.9,16.3l15.1-8.8l-7.4-20.1c4.1-3.3,7.7-7,10.9-11l20.2,7.2l8.7-15.2l-16.4-13.7c1.8-4.9,3.2-9.9,3.9-15.1l21.1-3.9l-0.1-17.5   l-21-3.6c-0.9-5.1-2.2-10.1-4.1-15.1L495.2,153.4z M418.9,216.7c-11.9,7-27.2,2.9-34.1-8.9c-7-11.9-3-27.2,8.9-34.2   c11.9-6.9,27.2-2.9,34.1,9C434.8,194.5,430.8,209.8,418.9,216.7z"/><path d="M577,48.1l-16.8-18l-15.9,10.3l0.3,0.4c-2.7-1.6-5.6-2.8-8.5-3.9l0.6,0L534,18.2l-24.6-0.9l-3.9,18.6l0.5,0   c-2.9,0.8-5.8,1.8-8.6,3.2l0.3-0.2l-15.2-11.4l-18,16.8l10.3,15.9l0,0c-1.4,2.5-2.5,5.1-3.5,7.7l0-0.1l-18.8,2.6l-0.4,12.3   L451.7,95l18.5,3.9c0.8,2.7,1.7,5.4,2.9,8l-11.3,15l16.8,18l15.7-10.2c2.5,1.4,5.2,2.6,7.9,3.5l2.6,18.6l12.3,0.4l12.3,0.4   l3.9-18.4c2.7-0.8,5.4-1.8,8-3l15,11.3l18-16.8L564,110c1.4-2.5,2.5-5,3.4-7.7l18.8-2.6l0.4-12.3l0.4-12.3l-18.6-3.9l0,0.3   c-0.8-2.8-1.8-5.7-3.1-8.4l0.2,0.2L577,48.1z M531.9,98.6c-7.4,6.9-19,6.5-25.9-0.9c-6.9-7.4-6.5-19,0.9-25.9   c7.4-6.9,19-6.5,25.9,0.9C539.7,80.1,539.3,91.7,531.9,98.6z"/></g><text x="0" y="854.3" fill="#000000" font-size="5px" font-weight="bold" font-family="'Helvetica Neue', Helvetica, Arial-Unicode, Arial, Sans-serif">Created by gilbert bages</text><text x="0" y="859.3" fill="#000000" font-size="5px" font-weight="bold" font-family="'Helvetica Neue', Helvetica, Arial-Unicode, Arial, Sans-serif">from the Noun Project</text></svg>