<svg xmlns="http://www.w3.org/2000/svg" xmlns:xlink="http://www.w3.org/1999/xlink" version="1.1" x="0px" y="0px" viewBox="0 0 100 100" enable-background="new 0 0 100 100" xml:space="preserve"><g><path fill="#000000" d="M93.5,44.4c-5-7.3-11.5-9.9-12.7-10.9c-1.2-1-3-4.1-4.4-4.7c-3-1.4-6.3-1.8-10-0.6c-1.5,2.2,0.7,5,1.6,5.4   c3.2,1.3,5.9,2.8,5.9,2.8c-0.3,0.8-0.8,0.7-1.7,0.6c-1.9-0.2-4.4-0.6-5.5-0.6c-1.1,0-0.7,2,1.1,2.6c4.2,1.3,7.6,1.1,9.9,2.5   c3.5,1.2,5.7,3,7.9,5.2c2.9,2.8,4.7,8.1,2.3,10.4c-2.5,2.4-12.1-1.5-15.2-1.5c-1.3,0.2-2.1,0-3.7,0.7c-8.1,3.2,0.2,13.6-3.5,19.7   c-3.3,5.5-10.5,6.3-24.1,2.2C33.4,75.7,8.8,63.8,4,80.9c-0.5,1.9,0,4.7,0.7,6.5c0.3,0.8,1.8,2.5,3.1,3.4c0.8,0.5,0.8,0.5,1.3,0.6   c0.5,0.1,1-0.6,0.5-0.7c-0.5-0.1-1.1-0.4-1.5-0.8c-0.8-0.7-2-1.8-2.4-3.4c-0.3-1.4,0-3.7,1.2-5.7c1.9-3,6.6-4.3,11.4-3.7   c6.9,0.9,12.3,3.2,20.3,6c5.1,1.7,12.8,3.6,18.1,4c7.2,0.5,13.4-2.1,15.9-8.4c2.4-6.2-3.3-16.2,4.5-15.3c2.2,0.3,15.4,3.4,19-3.8   C98.8,54.2,96.4,48.6,93.5,44.4z M71.9,31.7c-0.3,0.4-0.9,0.6-1.5,0.4c-0.7-0.2-1.1-0.9-0.9-1.5c0.2-0.7,0.9-0.2,1.5,0   S72.3,31.1,71.9,31.7z M77.9,19.7c0,0,0,0.1,0,0.1c0,0,0,0.2,0,0.2c0,0,0,0,0,0c-0.1,1-1.4,1-1.6,0c0,0,0,0,0,0c0,0,0-0.2,0-0.2   c0,0,0-0.1,0-0.1c0-0.3-0.9-3.1-0.8-3.7c0.1-1.5-0.2-1.9,0.8-2.8c0.3-0.3,0.8-0.3,1.1-0.1c0.2,0.1,0.4,0.3,0.5,0.6   c0,0.1,0.3,1.4,0.3,1.5C78.1,17.1,77.9,17.8,77.9,19.7z M88.1,26.5c-0.3,0-1-0.2-1.2-0.2c-1.2,0.2-1.5-1.3-0.3-1.6   c1.6-0.3,3.2-0.6,4.8-0.9c0.8-0.2,1.9-0.4,2.4,0.6C94.7,27.1,89.3,26.5,88.1,26.5z M88.5,15.6c-0.5,1.1-1.2,2-2,2.9   c-0.1,0.3-0.3,0.5-0.5,0.6c-0.2,0.2-0.4,0.4-0.5,0.6c-0.4,0.4-0.7,0.8-1,0.5c-0.4-0.2-0.7-0.7-0.3-1.2c0,0,0,0,0.1-0.1   c0-0.1,0-0.2,0.1-0.3c0.5-1.2,0.8-2.7,1.4-3.8c0.6-0.9,1.6-1.3,2.6-0.8c0.4,0.2,0.5,0.7,0.4,1.1C88.6,15.3,88.6,15.5,88.5,15.6   C88.5,15.6,88.5,15.6,88.5,15.6z M4.5,23.4C3.3,19,3,17.9,3,17.9c0-1.8,0.3-5.2,4-7.9c0.1-0.1,1.9,2.6,2,2.5   c0.2-0.2-1.4-4.6-1.2-4.7c0.9-0.6,1.8-1.4,3-1.7c1.1-0.3,1.8-0.2,2.7-0.2c0.2,0,2,4.5,2.2,4.5c0.2,0-0.2-2.7,0-2.7   c4.3,0.2,7.1,0.6,7.9,2C29,18.7,27.9,30.6,36,39c-2.7,4.2-1,6-2.7,8.1c2.2-1.7,1.2-5.1,3.2-7.1c6,1.6,10.4,8,17.4,5.2   c2.9-1.2,3.2-1.4,5.2-2.5c0.6-0.3,1.1,0.2,1.2,1c0.1,0.4,0.1,0.8,0.2,1.2c0,0.2,0.3,0.2,0.7,0c0.5-0.3,1.1,1.2,0.6,2   c-0.8,1.3-4.1,4.1-5.6,5.6c-3.8,3.8-7.7,5.7-15.6,4.6c-4.8-0.7-6.8,0.4-7.2,0.6c-0.3,0.1,0.7,3.8,0.5,4c-2.5,1.5-5.7,3-5.7,3   s-5.3-2.6-6-3.2c-3.3-3-5.4-5.2-3.5-6.2c1.1-0.2,4-0.8,4.7-1.6c-3.4,0.6-2.4,0.6-5.4,0.6C17.6,52.5,9.2,41.1,4.5,23.4z"></path></g></svg>