<?xml version="1.0" encoding="utf-8"?>
<!-- Generator: Adobe Illustrator 16.0.0, SVG Export Plug-In . SVG Version: 6.00 Build 0)  -->
<!DOCTYPE svg PUBLIC "-//W3C//DTD SVG 1.1//EN" "http://www.w3.org/Graphics/SVG/1.1/DTD/svg11.dtd">
<svg version="1.1" id="Layer_1" xmlns="http://www.w3.org/2000/svg" xmlns:xlink="http://www.w3.org/1999/xlink" x="0px" y="0px"
	 width="792px" height="612px" viewBox="0 0 792 612" enable-background="new 0 0 792 612" xml:space="preserve">
<g>
	<path fill="#FFFFFF" stroke="#000000" stroke-miterlimit="10" d="M486.691,172.483H310.653
		C224.365,258.055,117.051,392.544,172.2,490.657c43.581,77.54,142.105,97.589,237.694,96.257
		c95.59-1.332,188.239-24.065,220.054-96.257C670.629,398.36,566.859,260.171,486.691,172.483z M414.771,472.378v27.64h-26.552
		v-25.75c-18.153-0.806-35.76-5.69-46.059-11.65l8.125-31.692c11.383,6.228,27.368,11.913,44.979,11.913
		c15.44,0,26.01-5.953,26.01-16.798c0-10.284-8.67-16.794-28.72-23.571c-28.994-9.754-48.765-23.305-48.765-49.582
		c0-23.846,16.794-42.541,45.788-48.23v-25.735h26.549v23.839c18.152,0.816,30.352,4.613,39.289,8.948l-7.857,30.612
		c-7.044-2.983-19.511-9.212-39.015-9.212c-17.611,0-23.304,7.583-23.304,15.177c0,8.94,9.483,14.63,32.512,23.297
		c32.242,11.383,45.243,26.284,45.243,50.669C462.998,446.368,445.933,466.963,414.771,472.378z"/>
	<path fill="#FFFFFF" stroke="#000000" stroke-miterlimit="10" d="M538.734,39.761c-24.154-14.642-53.88,38.158-75.099,37.341
		c-21.226-0.816-37.968-52.915-62.2-52.064s-33.819,48.264-53.264,52.707c-19.444,4.443-67.912-55.95-87.357-34.739
		c-15.751,17.188,32.446,85.873,51.311,111.337h17.236h140.424h16.145C505.702,127.367,558.52,51.753,538.734,39.761z"/>
</g>
</svg>
