<svg xmlns="http://www.w3.org/2000/svg" xmlns:xlink="http://www.w3.org/1999/xlink" version="1.1" x="0px" y="0px" viewBox="0 0 100 100" enable-background="new 0 0 100 100" xml:space="preserve"><path d="M34.218,54.227v38.938c0,1.015-0.857,1.835-1.916,1.835l0,0c-1.055,0-1.911-0.82-1.911-1.835V54.227"></path><path d="M29.252,41.802c0.416-0.098,0.847-0.154,1.292-0.156l2.926-0.016c-1.181-2.754-3.898-4.693-7.081-4.693  c-4.271,0-7.746,3.476-7.746,7.745c0,1.015,0.821,1.833,1.832,1.833c1.013,0,1.83-0.818,1.83-1.833c0-2.251,1.832-4.081,4.084-4.081  C27.512,40.601,28.518,41.065,29.252,41.802z"></path><path d="M77.408,53.29l-9.883-25.252c-0.925-2.364-3.585-3.533-5.95-2.612L51.639,29.3c-2.274,0.889-3.423,3.389-2.684,5.685  l-6.684,8.255l-11.718,0.063c-2.289,0.011-4.134,1.874-4.123,4.165l0.005,0.67c0.011,2.287,1.875,4.133,4.165,4.118l14.005-0.073  c0.024,0,0.049-0.006,0.074-0.008c0.219-0.006,0.434-0.027,0.647-0.068c0.069-0.014,0.139-0.025,0.208-0.043  c0.18-0.043,0.357-0.101,0.53-0.168c0.089-0.033,0.174-0.068,0.259-0.105c0.146-0.07,0.284-0.148,0.421-0.234  c0.101-0.062,0.201-0.127,0.295-0.196c0.107-0.079,0.208-0.165,0.307-0.257c0.116-0.102,0.224-0.213,0.328-0.331  c0.036-0.042,0.08-0.071,0.114-0.114l4.9-6.056l6.223,15.896c0.666,1.705,2.238,2.774,3.95,2.901v26.691  c0,2.537,2.057,4.592,4.594,4.592h3.17c2.537,0,4.594-2.055,4.594-4.592V59.022C77.286,57.96,78.271,55.501,77.408,53.29z"></path><circle cx="51.099" cy="15.179" r="10.18"></circle></svg>