<svg xmlns="http://www.w3.org/2000/svg" xmlns:xlink="http://www.w3.org/1999/xlink" version="1.1" x="0px" y="0px" viewBox="0 0 100 125" enable-background="new 0 0 100 100" xml:space="preserve"><circle cx="33" cy="54.4" r="10.3"/><circle cx="66.8" cy="54.4" r="10.3"/><path fill="none" d="M49.1,93.9c0,0.8,0,1.4,0,2c0.4,0,0.9,0,1.3,0c0-0.5,0-1.2,0-2C50,93.9,49.5,93.9,49.1,93.9z"/><path d="M66.9,33.6c0.1-0.3,0.1-0.6,0.1-1c0-0.4-0.1-0.7-0.1-1c1.8-1.5,2.9-3.8,2.9-6.7c0-3.9-1.8-7.1-4.6-8.4  c-0.2-1.4-0.9-2.8-1.8-3.9c-1.6-1.9-4.2-3-6.8-3c-1,0-1.9,0.2-2.8,0.5c-1.8-2.3-4.6-3.6-8.1-3.6c-4.5,0-9.1,2.2-11.3,5.5  c-0.9,1.3-1.4,2.8-1.4,4.2c-2.8,1.3-4.6,4.3-4.6,8c0,3.1,1.3,5.8,3.3,7.4c-0.1,0.3-0.1,0.6-0.1,0.8c0,0.3,0,0.7,0.1,1  c-1.3,0.5-2.2,1.7-2.2,3.1c0,0.9,0.4,1.7,1,2.3c-0.3,0.4-0.5,0.9-0.5,1.4c0,1.4,1.1,2.5,2.5,2.5c1.4,0,2.5-1.1,2.5-2.5  c0-0.4-0.1-0.7-0.2-1c0.8-0.5,1.3-1.4,1.4-2.4c2.1-0.1,3.8-1.6,4.2-3.7h18c0.3,2.1,2,3.8,4.2,3.8c0.1,1,0.6,1.9,1.4,2.4  c-0.1,0.3-0.2,0.7-0.2,1c0,1.4,1.1,2.5,2.5,2.5s2.5-1.1,2.5-2.5c0-0.5-0.2-1-0.5-1.4c0.6-0.6,1-1.4,1-2.3  C69.1,35.3,68.2,34.1,66.9,33.6z M32.5,41c-0.4,0-0.7-0.3-0.7-0.7s0.3-0.7,0.7-0.7c0.4,0,0.7,0.3,0.7,0.7S32.9,41,32.5,41z M33.3,38  c-0.3-0.1-0.5-0.1-0.8-0.1c-0.1,0-0.2,0-0.3,0c-0.5-0.3-0.8-0.7-0.8-1.3c0-0.8,0.7-1.5,1.5-1.5s1.5,0.7,1.5,1.5  C34.4,37.2,33.9,37.8,33.3,38z M36,35.1c-0.1,0-0.1,0-0.2,0c-0.4-0.9-1.3-1.5-2.2-1.7c-0.1-0.3-0.1-0.5-0.1-0.8  c0-1.4,1.2-2.6,2.6-2.6c1.4,0,2.6,1.2,2.6,2.6C38.6,33.9,37.4,35.1,36,35.1z M59,30.3c-6.2,0-14.5,0-19.2,0C39,29,37.6,28.1,36,28.1  c-1.1,0-2.1,0.4-2.8,1.1c-3.3-3-2.5-10.7,3.1-10.8c-2-4.9,4.1-9,9.4-9c3,0,5.9,1.3,6.9,4.6c1.2-1,2.6-1.5,4-1.5  c3.3,0,6.4,2.6,5.8,6.3c4.6,0.1,6,7.5,2.9,10.4c-0.7-0.6-1.7-0.9-2.7-0.9C61.1,28.3,59.7,29.1,59,30.3z M62.9,35.2  c-0.1,0-0.1,0-0.2,0c-1.4,0-2.6-1.2-2.6-2.6c0-1.4,1.2-2.6,2.6-2.6s2.6,1.2,2.6,2.6c0,0.3-0.1,0.6-0.1,0.8  C64.1,33.7,63.3,34.4,62.9,35.2z M66.2,41.2c-0.4,0-0.7-0.3-0.7-0.7c0-0.4,0.3-0.7,0.7-0.7s0.7,0.3,0.7,0.7  C66.8,40.9,66.5,41.2,66.2,41.2z M66.5,38.1c-0.1,0-0.2,0-0.3,0c-0.3,0-0.5,0.1-0.8,0.1c-0.6-0.2-1.1-0.8-1.1-1.4  c0-0.8,0.7-1.5,1.5-1.5c0.8,0,1.5,0.7,1.5,1.5C67.3,37.3,67,37.8,66.5,38.1z"/><path d="M32.8,66.8c-7.3,0-15.1,3.2-16.1,10.9v16.2h32.4c0-1.2,0-2.7,0-4.3c0,0,0-9.8,0-10.2C49.1,70.4,40.9,66.8,32.8,66.8z"/><path d="M66.7,66.8c-7.9,0-16.3,3.6-16.3,12.6c0,0.6,0,9.7,0,9.7c0,1.9,0,3.5,0,4.8c0.1,0,0.2,0,0.3,0H83V79.7c0-0.1,0-0.2,0-0.3  C83,70.4,74.8,66.8,66.7,66.8z"/><path fill="#000000" d="M52.6,24.9c0-0.4-0.2-0.7-0.5-0.8v-0.4c0-0.2,0.1-0.3,0.5-0.7c0.6-0.7,1.6-1.7,1.6-4c0-3.5-3-5-5.1-5.1  c-2,0-5,1.6-5,5.1c0,2.2,0.9,3.2,1.5,3.9c0.4,0.5,0.6,0.7,0.6,1.1v0.1c-0.3,0.2-0.5,0.5-0.5,0.8c0,0.3,0.2,0.6,0.5,0.8  c-0.3,0.2-0.5,0.5-0.5,0.8c0,0.5,0.4,0.9,0.9,0.9h0.6c-0.2,0.2-0.3,0.4-0.3,0.7c0,0.5,0.4,0.9,0.8,0.9h2.7c0.5,0,0.8-0.4,0.8-0.9  c0-0.3-0.1-0.5-0.3-0.7h0.6c0.5,0,0.9-0.4,0.9-0.9c0-0.3-0.2-0.6-0.5-0.8C52.4,25.6,52.6,25.3,52.6,24.9z M52.3,19.1  c0,1.6-0.5,2.1-1.1,2.7c-0.4,0.5-1,1-1,2V24H48c0-1.1-0.6-1.7-1-2.3c-0.6-0.6-1.1-1.2-1.1-2.7c0-1.3,0.6-2,1.1-2.4  c0.7-0.6,1.5-0.8,2.1-0.8C50.1,15.9,52.3,16.7,52.3,19.1z"/><text x="0" y="115" fill="#000000" font-size="5px" font-weight="bold" font-family="'Helvetica Neue', Helvetica, Arial-Unicode, Arial, Sans-serif">Created by Blake Thompson</text><text x="0" y="120" fill="#000000" font-size="5px" font-weight="bold" font-family="'Helvetica Neue', Helvetica, Arial-Unicode, Arial, Sans-serif">from the Noun Project</text></svg>