<?xml version="1.0" encoding="utf-8"?>
<!-- Generator: Adobe Illustrator 16.0.0, SVG Export Plug-In . SVG Version: 6.00 Build 0)  -->
<!DOCTYPE svg PUBLIC "-//W3C//DTD SVG 1.1//EN" "http://www.w3.org/Graphics/SVG/1.1/DTD/svg11.dtd">
<svg version="1.1" id="Layer_1" xmlns="http://www.w3.org/2000/svg" xmlns:xlink="http://www.w3.org/1999/xlink" x="0px" y="0px"
	 width="792px" height="612px" viewBox="0 0 792 612" enable-background="new 0 0 792 612" xml:space="preserve">
<path fill="#FFFFFF" stroke="#000000" stroke-miterlimit="10" d="M348.876,64.872c2.448-48.348,42.228-47.735,46.513-47.735
	c3.672,0,44.063-0.612,46.512,47.735c0,0,7.955,72.216-45.9,72.828l0,0c0,0,0,0-0.611,0c0,0,0,0-0.613,0l0,0
	C340.92,137.087,348.876,64.872,348.876,64.872z M296.244,222.767c0-3.06,0-6.731,0-9.791v-1.225l0,0
	c0.611-15.3,3.672-26.316,18.972-36.107c20.808-13.465,44.676-24.48,44.676-24.48l18.973,59.364l11.016-31.212
	c-18.972-26.929,1.224-28.152,4.896-28.152l0,0l0,0l0,0l0,0c3.672,0,24.479,1.224,4.896,28.152l11.016,31.212l18.973-59.364
	c0,0,23.256,11.628,44.676,24.48c15.912,9.791,18.973,20.808,18.973,36.107l0,0v1.225c0,3.06,0,6.119,0,9.791c0,0,0-0.611,0-1.224
	v42.84h-98.532h-98.532v-42.84C296.244,222.156,296.244,222.767,296.244,222.767z M493.309,211.751L493.309,211.751
	C493.309,211.14,493.309,211.14,493.309,211.751z M296.855,211.751L296.855,211.751C296.855,211.14,296.855,211.14,296.855,211.751z
	 M594.9,468.18L594.9,468.18L594.9,468.18c0.611,0,0.611,0,0.611,0l0,0c53.856-0.611,45.9-72.828,45.9-72.828
	c-2.448-48.348-42.229-47.735-46.512-47.735c-3.672,0-44.064-0.612-46.513,47.735C549,395.352,541.044,467.568,594.9,468.18z
	 M496.368,553.248c0-3.061,0-6.732,0-9.792v-1.224l0,0c0.612-15.301,3.672-26.316,18.972-36.108
	c20.809-13.464,44.676-24.479,44.676-24.479l18.973,59.363l11.016-31.212c-18.972-26.928,1.225-28.151,4.896-28.151l0,0l0,0l0,0l0,0
	c3.672,0,24.479,1.224,4.896,28.151l11.017,31.212l18.972-59.363c0,0,23.256,11.627,44.676,24.479
	c15.912,9.792,18.973,20.808,18.973,36.108l0,0v1.224c0,3.06,0,6.12,0,9.792c0,0,0-0.612,0-1.225v42.841H594.9h-98.532v-42.841
	C496.368,552.636,496.368,553.248,496.368,553.248z M693.432,542.232L693.432,542.232
	C693.432,541.62,693.432,541.62,693.432,542.232z M496.368,542.232L496.368,542.232C496.368,541.62,496.368,541.62,496.368,542.232z
	 M196.487,468.18L196.487,468.18C197.1,468.18,197.1,468.18,196.487,468.18c0.612,0,0.612,0,0.612,0l0,0
	c53.856-0.611,45.9-72.828,45.9-72.828c-2.448-48.348-42.229-47.735-46.513-47.735c-3.672,0-44.063-0.612-46.512,47.735
	C150.588,395.352,142.632,467.568,196.487,468.18z M98.567,553.248c0-3.061,0-6.732,0-9.792v-1.224l0,0
	c0.612-15.301,3.673-26.316,18.973-36.108c20.808-13.464,44.676-24.479,44.676-24.479l18.972,59.363l11.017-31.212
	c-18.973-26.928,1.224-28.151,4.896-28.151l0,0l0,0l0,0l0,0c3.672,0,24.48,1.224,4.896,28.151l11.016,31.212l18.973-59.363
	c0,0,23.256,11.627,44.676,24.479c15.912,9.792,18.972,20.808,18.972,36.108l0,0v1.224c0,3.06,0,6.12,0,9.792c0,0,0-0.612,0-1.225
	v42.841H197.1H98.568v-42.841C98.567,552.636,98.567,553.248,98.567,553.248z M295.632,542.232L295.632,542.232
	C295.632,541.62,295.632,541.62,295.632,542.232z M98.567,542.232L98.567,542.232C98.567,541.62,98.567,541.62,98.567,542.232z
	 M505.548,400.248v2.448V413.1v2.448c0,3.06-1.836,5.508-4.896,6.12l-14.076,1.836c-1.836,0.612-3.672,1.836-4.284,3.672
	c-2.448,9.792-6.12,19.584-11.628,28.152c-1.225,1.836-1.225,3.672,0,5.508l8.568,11.628c1.836,2.448,1.224,5.508-0.612,7.956
	l-1.836,1.836l-7.345,7.344l-1.836,1.836c-1.836,1.836-5.508,2.448-7.955,0.612l-11.629-8.567c-1.836-1.225-3.672-1.225-5.508,0
	c-8.568,5.508-17.748,9.18-27.54,11.627c-1.836,0.612-3.672,2.448-3.672,4.284l-2.448,14.076c-0.611,3.06-3.06,4.896-6.119,4.896
	h-2.448H389.88h-2.448c-3.06,0-5.508-1.836-6.12-4.896l-2.447-14.076c-0.612-1.836-1.836-3.672-3.673-4.284
	c-9.792-2.447-19.584-6.119-27.54-11.627c-1.836-1.225-3.672-1.225-5.508,0l-11.628,8.567c-2.447,1.836-5.508,1.224-7.956-0.612
	l-1.836-1.836l-7.344-7.344l-1.836-1.836c-1.836-1.836-2.448-5.508-0.612-7.956l8.568-11.628c1.224-1.836,1.224-3.672,0-5.508
	c-5.508-8.568-9.181-17.748-11.628-28.152c-0.612-1.836-2.448-3.672-4.284-3.672l-14.076-1.836c-3.06-0.612-4.896-3.061-4.896-6.12
	V413.1v-10.403v-2.448c0-3.061,1.836-5.508,4.896-6.12l14.076-1.836c1.836-0.612,3.672-1.836,4.284-3.672
	c2.447-9.792,6.12-19.584,11.628-28.152c1.224-1.836,1.224-4.284,0-5.508l-8.568-11.628c-1.836-2.448-1.224-5.508,0.612-7.956
	l1.836-1.836l7.344-7.344l1.836-1.836c1.836-1.836,5.509-2.448,7.956-0.612l11.628,8.568c1.836,1.224,3.673,1.224,5.508,0
	c8.568-5.508,17.748-9.18,28.152-11.628c1.836-0.612,3.672-2.448,3.672-4.284l1.836-14.077c0.612-3.06,3.061-4.896,6.12-4.896h2.448
	h10.404h2.448c3.06,0,5.508,1.836,6.119,4.896l1.836,14.077c0.612,1.836,1.836,3.672,3.673,4.284
	c10.403,2.448,19.584,6.12,28.151,11.628c1.836,1.224,4.284,1.224,5.508,0l11.629-8.568c2.447-1.836,5.508-1.224,7.955,0.612
	l1.836,1.836l7.345,7.344l1.836,1.836c1.836,1.836,2.448,5.508,0.612,7.956l-8.568,11.628c-1.224,1.836-1.224,3.672,0,5.508
	c5.508,8.568,9.18,17.748,11.628,28.152c0.612,1.836,2.448,3.672,4.284,3.672l14.076,1.836
	C503.1,394.74,505.548,397.188,505.548,400.248z M395.388,357.408c-28.152,0-50.184,22.644-50.184,50.184
	c0,28.152,22.644,50.185,50.184,50.185s50.185-22.645,50.185-50.185S422.928,357.408,395.388,357.408z"/>
</svg>
