<?xml version="1.0" encoding="utf-8"?>
<!-- Generator: Adobe Illustrator 16.0.0, SVG Export Plug-In . SVG Version: 6.00 Build 0)  -->
<!DOCTYPE svg PUBLIC "-//W3C//DTD SVG 1.1//EN" "http://www.w3.org/Graphics/SVG/1.1/DTD/svg11.dtd">
<svg version="1.1" id="Layer_1" xmlns="http://www.w3.org/2000/svg" xmlns:xlink="http://www.w3.org/1999/xlink" x="0px" y="0px"
	 width="792px" height="612px" viewBox="0 0 792 612" enable-background="new 0 0 792 612" xml:space="preserve">
<path fill="#FFFFFF" stroke="#000000" stroke-miterlimit="10" d="M120.655,41.659V125.9v22.265h25.937v345.994h194.903
	l-49.241,49.242c-8.697,8.69-8.697,22.784,0,31.48c4.345,4.346,10.037,6.519,15.74,6.519c5.692,0,11.39-2.173,15.741-6.519
	l71.5-71.512l71.506,71.506c4.345,4.352,10.043,6.524,15.734,6.524s11.39-2.173,15.734-6.519c8.696-8.696,8.696-22.79,0-31.48
	l-49.241-49.242h197.278V148.165h23.586V125.9V41.659H120.655z M625.311,86.182V125.9H165.178V86.182H625.311z M601.718,449.637
	H191.115V148.165h410.603V449.637z"/>
<path fill="#FFFFFF" stroke="#000000" stroke-miterlimit="10" d="M440.346,383.216c0,25.985,21.126,47.112,47.111,47.112
	c25.979,0,47.131-21.127,47.131-47.112c0-25.979-21.157-47.13-47.131-47.13C461.472,336.086,440.346,357.236,440.346,383.216z
	 M512.323,383.216c0,13.697-11.151,24.854-24.866,24.854c-13.696,0-24.854-11.15-24.854-24.854
	c0-13.715,11.151-24.865,24.854-24.865C501.179,358.345,512.323,369.495,512.323,383.216z"/>
<polygon fill="#FFFFFF" stroke="#000000" stroke-miterlimit="10" points="270.577,288.167 286.317,303.907 308.362,281.869 
	330.406,303.907 346.146,288.167 324.096,266.122 346.165,244.06 330.43,228.319 308.362,250.388 286.299,228.319 270.552,244.06 
	292.621,266.122 "/>
<path fill="#FFFFFF" stroke="#000000" stroke-miterlimit="10" d="M279.182,394.587l2.742,22.093
	c88.048-10.894,157.418-80.067,170.637-166.641l35.153,0.22l-44.565-78.244l-45.483,77.7l32.436,0.196
	C417.126,325.217,356.232,385.046,279.182,394.587z"/>
</svg>
