<svg xmlns="http://www.w3.org/2000/svg" xmlns:xlink="http://www.w3.org/1999/xlink" version="1.1" x="0px" y="0px" viewBox="0 0 100 100" enable-background="new 0 0 100 100" xml:space="preserve"><path d="M5.009,6.807v13.765v3.638h4.238v56.535h31.847l-8.046,8.046c-1.421,1.42-1.421,3.723,0,5.144  C33.758,94.645,34.688,95,35.62,95c0.93,0,1.861-0.355,2.572-1.065L49.875,82.25l11.684,11.684C62.269,94.645,63.2,95,64.13,95  s1.861-0.355,2.571-1.065c1.421-1.421,1.421-3.724,0-5.144l-8.046-8.046H90.89V24.21h3.854v-3.638V6.807H5.009z M87.469,14.082v6.49  H12.284v-6.49H87.469z M83.614,73.47H16.522V24.21h67.092V73.47z"></path><path d="M57.246,62.617c0,4.246,3.452,7.698,7.698,7.698c4.245,0,7.701-3.452,7.701-7.698c0-4.245-3.457-7.701-7.701-7.701  C60.698,54.916,57.246,58.372,57.246,62.617z M69.007,62.617c0,2.238-1.822,4.061-4.063,4.061c-2.238,0-4.061-1.822-4.061-4.061  c0-2.241,1.822-4.063,4.061-4.063C67.186,58.553,69.007,60.375,69.007,62.617z"></path><polygon points="29.506,47.086 32.078,49.658 35.68,46.057 39.282,49.658 41.854,47.086 38.251,43.484 41.857,39.879 39.286,37.307   35.68,40.913 32.075,37.307 29.502,39.879 33.108,43.484 "></polygon><path d="M30.912,64.475l0.448,3.61c14.387-1.78,25.722-13.083,27.882-27.229l5.744,0.036l-7.282-12.785l-7.432,12.696l5.3,0.032  C53.452,53.14,43.502,62.916,30.912,64.475z"></path></svg>