<svg xmlns="http://www.w3.org/2000/svg" xmlns:xlink="http://www.w3.org/1999/xlink" version="1.1" x="0px" y="0px" viewBox="0 0 100 125" enable-background="new 0 0 100 100" xml:space="preserve"><g><path d="M35.096,27.032c-0.776,2.033-1.78,2.989-2.67,4.066c-0.251,0.318-0.548,0.612-0.456,1.078   c0.068,0.417,0.387,0.71,0.729,0.71c0.023,0,0.046,0,0.068,0c0.685-0.098,1.347-0.221,1.963-0.392   c2.306-0.637,4.451-1.69,6.345-3.136c1.278,0.245,2.625,0.392,4.018,0.392c8.88,0,16.069-5.609,16.069-12.542   c0-6.932-7.189-12.542-16.069-12.542c-8.879,0-16.069,5.61-16.069,12.542C29.024,21.177,31.398,24.729,35.096,27.032z"/><path d="M64.223,38.767c0.615,0.171,1.277,0.293,1.963,0.392c0.364,0.049,0.707-0.27,0.799-0.71   c0.092-0.466-0.205-0.76-0.457-1.079c-0.891-1.078-1.895-2.033-2.67-4.066c3.697-2.303,6.07-5.831,6.07-9.823   c0-4.091-2.51-7.717-6.367-9.995c0.342,1.201,0.524,2.45,0.524,3.724c0,4.384-2.101,8.427-5.912,11.415   c-3.538,2.744-8.171,4.263-13.079,4.263c-0.662,0-1.347-0.049-2.009-0.098c2.854,2.009,6.643,3.233,10.772,3.233   c1.395,0,2.74-0.146,4.019-0.392C59.771,37.076,61.916,38.13,64.223,38.767z"/></g><path d="M86.236,77.456c3.354-2.562,8.557-12.015,8.557-18.795c0-3.763-1.174-7.188-3.098-9.757  c-0.358-5.397-6.832-9.698-14.766-9.698c-8.162,0-13.973,6.44-17.039,10.171c-0.895,1.086,0.129,4.143,2.834,5.477  C61,57.58,59.25,68.039,57.744,70.287c-1.619,2.419,1.146,2.702,2.846,2.721c0.278,2.125,1.415,4.107,1.905,7.516  c0.555,3.847,6.022,2.486,10.454,0.732c5.717,13.317-7.59,15.919,8.438,14.305C104.145,93.268,84.333,89.574,86.236,77.456z"/><path d="M20.66,95.561c16.027,1.614,2.721-0.987,8.438-14.305c4.432,1.754,9.899,3.114,10.454-0.732  c0.49-3.408,1.627-5.391,1.905-7.516c1.699-0.019,4.465-0.302,2.846-2.721c-1.506-2.248-3.256-12.707-4.98-15.434  c2.705-1.334,3.729-4.391,2.834-5.477c-3.066-3.731-8.877-10.171-17.039-10.171c-7.934,0-14.407,4.301-14.766,9.698  c-1.924,2.569-3.098,5.995-3.098,9.757c0,6.78,5.202,16.233,8.557,18.795C17.714,89.574-2.098,93.268,20.66,95.561z"/><text x="0" y="115" fill="#000000" font-size="5px" font-weight="bold" font-family="'Helvetica Neue', Helvetica, Arial-Unicode, Arial, Sans-serif">Created by Yuvika Koul</text><text x="0" y="120" fill="#000000" font-size="5px" font-weight="bold" font-family="'Helvetica Neue', Helvetica, Arial-Unicode, Arial, Sans-serif">from the Noun Project</text></svg>